<!-- Uploaded to: SVG Repo, www.svgrepo.com, Transformed by: SVG Repo Mixer Tools -->
<svg width="800px" height="800px" viewBox="0 0 16 16" xmlns="http://www.w3.org/2000/svg" fill="none">
<g fill="#000000">
<path d="M4.695 7.755a.75.75 0 001.06.05l1.495-1.36v4.805a.75.75 0 001.5 0V6.445l1.495 1.36a.75.75 0 001.01-1.11l-2.75-2.5a.75.75 0 00-1.01 0l-2.75 2.5a.75.75 0 00-.05 1.06z"/>
<path fill-rule="evenodd" d="M0 8a8 8 0 1116 0A8 8 0 010 8zm8-6.5a6.5 6.5 0 100 13 6.5 6.5 0 000-13z" clip-rule="evenodd"/>
</g>
</svg>