<!-- Uploaded to: SVG Repo, www.svgrepo.com, Transformed by: SVG Repo Mixer Tools -->
<svg fill="#000000" width="800px" height="800px" viewBox="0 0 1024 1024" xmlns="http://www.w3.org/2000/svg"><path d="M232.426 502.063c-24.731-45.349-37.866-96.226-37.866-149.058 0-172.336 139.835-312.044 312.34-312.044s312.34 139.708 312.34 312.044c0 49.997-11.769 98.27-34.033 141.795-5.151 10.07-1.163 22.409 8.907 27.56s22.409 1.163 27.56-8.907c25.201-49.266 38.527-103.927 38.527-160.448 0-194.966-158.182-353.004-353.3-353.004s-353.3 158.038-353.3 353.004c0 59.727 14.875 117.341 42.866 168.669 5.415 9.93 17.855 13.59 27.785 8.175s13.59-17.855 8.175-27.785z"/><path d="M228.232 494.805c-5.627-9.812-18.143-13.204-27.955-7.577s-13.204 18.143-7.577 27.955l281.119 490.158c16.279 28.374 49.819 28.374 66.096.003l278.796-486.116c5.627-9.812 2.235-22.327-7.577-27.954s-22.327-2.235-27.954 7.577L506.868 980.636l-278.636-485.83z"/><path d="M611.406 352.229c0-57.651-46.788-104.397-104.509-104.397-57.719 0-104.499 46.743-104.499 104.397s46.78 104.397 104.499 104.397c57.721 0 104.509-46.746 104.509-104.397zm40.96 0c0 80.281-65.135 145.357-145.469 145.357-80.333 0-145.459-65.074-145.459-145.357s65.126-145.357 145.459-145.357c80.335 0 145.469 65.076 145.469 145.357z"/></svg>